<svg width="90.99999999999999" height="90.99999999999999" xmlns="http://www.w3.org/2000/svg">

 <g>
  <title>background</title>
  <rect fill="none" id="canvas_background" height="402" width="582" y="-1" x="-1"/>
 </g>
 <g>
  <title fill="#b1e1f8">Layer 1</title>
  <path id="svg_4" fill="#b1e1f8" d="m25.474,28.946c0,0 7.602,-9.437 22.947,-9.437c5.437,0 3.442,10.541 3.442,10.541"/>
  <path id="svg_5" fill="#b1e1f8" d="m54.051,30.464l-4.376,-0.828c0.43,-2.296 0.566,-6.3 -0.506,-7.59c-0.163,-0.196 -0.338,-0.311 -0.748,-0.311c-14.116,0 -21.143,8.521 -21.213,8.607l-3.468,-2.794c0.338,-0.418 8.457,-10.266 24.681,-10.266c1.691,0 3.136,0.665 4.179,1.924c2.776,3.35 1.697,9.966 1.451,11.258z"/>
  <path id="svg_7" fill="#b1e1f8" d="m25.474,64.827c0,0 7.602,9.435 22.947,9.435c5.437,0 3.442,-10.54 3.442,-10.54"/>
  <path id="svg_8" fill="#b1e1f8" d="m48.421,76.489c-16.223,0 -24.343,-9.846 -24.681,-10.266l3.463,-2.799c0.288,0.35 7.209,8.61 21.218,8.61c0.41,0 0.585,-0.112 0.748,-0.311c1.072,-1.29 0.936,-5.294 0.506,-7.593l4.376,-0.825c0.246,1.293 1.325,7.907 -1.451,11.258c-1.043,1.261 -2.488,1.926 -4.179,1.926z"/>
  <path id="svg_10" fill="#b1e1f8" d="m37.135,27.122c-14.369,0 -26.996,7.911 -34.324,19.864c7.328,11.954 19.955,19.866 34.324,19.866c14.372,0 26.998,-7.912 34.328,-19.866c-7.33,-11.953 -19.956,-19.864 -34.328,-19.864z"/>
  <path id="svg_11" fill="#b1e1f8" d="m37.135,69.078c-14.649,0 -28.19,-7.823 -36.223,-20.928l-0.713,-1.164l0.713,-1.164c8.033,-13.103 21.574,-20.926 36.223,-20.926c14.647,0 28.19,7.823 36.226,20.926l0.713,1.164l-0.713,1.164c-8.036,13.105 -21.579,20.928 -36.226,20.928zm-31.687,-22.092c7.289,11.07 19.037,17.638 31.688,17.638c12.65,0 24.399,-6.565 31.689,-17.638c-7.29,-11.071 -19.039,-17.637 -31.689,-17.637c-12.652,0 -24.4,6.567 -31.688,17.637z"/>
  <path id="svg_14" fill="#b1e1f8" d="m88.628,62.822c-7.016,-3.469 -12.966,-8.979 -17.165,-15.838c4.199,-6.851 10.149,-12.364 17.165,-15.832c0,0 -7.863,16.406 0,31.67z"/>
  <path id="svg_15" fill="#b1e1f8" d="m88.626,65.048c-0.334,0 -0.672,-0.074 -0.985,-0.229c-7.381,-3.649 -13.631,-9.415 -18.078,-16.67c-0.437,-0.716 -0.437,-1.615 0.002,-2.328c4.447,-7.253 10.697,-13.017 18.076,-16.664c0.849,-0.422 1.875,-0.255 2.552,0.413c0.675,0.667 0.854,1.688 0.442,2.546c-0.072,0.151 -7.271,15.627 -0.028,29.687c0.441,0.855 0.281,1.896 -0.392,2.581c-0.429,0.434 -1.005,0.664 -1.589,0.664zm-14.526,-18.064c2.743,4.169 6.162,7.744 10.086,10.57c-2.311,-8.277 -1.111,-16.181 0.299,-21.35c-4.047,2.859 -7.571,6.508 -10.385,10.78z"/>
  <path id="svg_16" fill="#b1e1f8" d="m24.622,66.545l-3.252,-3.04c8.519,-9.11 8.519,-23.929 0,-33.039l3.252,-3.041c10.088,10.785 10.088,28.335 0,39.12z"/>
  <path id="svg_17" fill="#434B56" d="m15.363,45.398c0,-1.236 0.991,-2.228 2.228,-2.228l0,0c1.227,0 2.218,0.992 2.218,2.228l0,0c0,1.227 -0.992,2.219 -2.218,2.219l0,0c-1.237,0 -2.228,-0.992 -2.228,-2.219z"/>
  <text xml:space="preserve" text-anchor="start" font-family="Helvetica, Arial, sans-serif" font-size="12" id="svg_18" y="49.709875" x="29.121659" stroke-opacity="null" stroke-width="0" stroke="null" fill="#ffffff">FTP</text>
 </g>
</svg>